<svg width="70" height="70" viewBox="0 0 70 70" fill="none" xmlns="http://www.w3.org/2000/svg">
    <path d="M61.926 0H8.07403C3.61487 0 0 3.61487 0 8.07403V61.926C0 66.3851 3.61487 70 8.07403 70H61.926C66.3851 70 70 66.3851 70 61.926V8.07403C70 3.61487 66.3851 0 61.926 0Z" fill="black"/>
    <path d="M10.1019 34.3491C10.1019 34.0361 10.0018 33.936 9.9267 33.7795C11.6604 32.9283 11.8294 31.6264 14.3893 31.6264C15.76 31.6264 17.0118 32.0959 17.8192 33.4228C18.7455 32.5715 19.3214 31.6264 21.4995 31.6264C23.7715 31.6264 25.6554 33.598 25.6554 35.9076V40.4453C25.6554 41.2589 25.8494 41.4342 26.081 41.6094H23.9217C24.291 41.3779 24.3097 41.0587 24.3097 40.5079V36.1078C24.3097 34.3491 23.0204 32.9658 21.2867 32.9658C19.7032 32.9658 18.8582 34.2677 18.5515 34.5681V40.4453C18.5515 41.2589 18.7455 41.4342 18.9771 41.6094H16.8178C17.1871 41.3779 17.2058 41.0587 17.2058 40.5079V36.1078C17.2058 34.3491 15.9102 32.9658 14.1828 32.9658C12.5993 32.9658 11.8294 34.2677 11.4476 34.5681V40.921C11.4476 41.2777 11.7731 41.4968 11.9296 41.6094H9.789C10.0581 41.4154 10.1019 41.1588 10.1019 40.6456V34.3491Z" fill="#FEFEFE"/>
    <path d="M26.6819 36.7775C26.6819 33.8922 29.0665 31.6264 31.8768 31.6264C34.6871 31.6264 37.078 33.8922 37.078 36.7775C37.078 39.6567 34.6871 41.9287 31.8768 41.9287C29.0665 41.9287 26.6819 39.6567 26.6819 36.7775ZM31.8768 32.9658C29.7988 32.9658 28.0651 34.6871 28.0651 36.7775C28.0651 38.868 29.7988 40.583 31.8768 40.583C33.9548 40.583 35.6885 38.868 35.6885 36.7775C35.6885 34.6871 33.9548 32.9658 31.8768 32.9658Z" fill="#FEFEFE"/>
    <path d="M46.4852 28.209C46.4852 27.99 46.4038 27.7584 46.1347 27.5581H47.8308V38.4361C47.8308 38.9056 47.8308 39.6003 48.0437 39.7756C47.6368 39.8569 47.2738 40.0948 46.9233 40.3326C45.5589 41.1212 44.7702 41.9286 43.0741 41.9286C40.1511 41.9286 37.9167 39.6379 37.9167 36.6962C37.9167 33.7169 40.4015 31.6264 43.2118 31.6264C44.5574 31.6264 45.6715 31.9206 46.4038 33.066L46.4852 33.0284V28.209ZM46.4852 34.5431C45.4837 33.5166 44.8078 32.9658 42.9426 32.9658C40.7833 32.9658 39.2999 34.7246 39.2999 36.8339C39.2999 38.8868 41.0524 40.583 43.0928 40.583C44.8266 40.583 45.7717 39.4814 46.4852 39.0871V34.5431Z" fill="#FEFEFE"/>
    <path d="M49.6897 27.4955L48.5819 30.3872H49.3079L51.2232 27.483L49.6897 27.4955Z" fill="#FEFEFE"/>
    <path d="M51.0855 27.1325L52.0932 27.1388L50.7037 29.2605L48.2189 45.49L57.0127 45.4837L60.211 24.51H51.5048L51.0855 27.1325Z" fill="#E42D24"/>
    <path d="M56.1615 33.6606C55.667 33.2663 54.9973 32.9721 54.3151 32.9721C53.4201 32.9721 52.6752 33.2663 52.6752 34.2114C52.6752 36.427 57.1379 35.3192 57.1379 38.9494C57.1379 40.6706 55.7046 41.9287 53.9208 41.9287C53.1509 41.9287 52.5939 41.8348 52.1745 41.7346C51.7614 41.6533 51.4735 41.5343 51.2419 41.5343C51.1168 41.5343 50.9353 41.6533 50.8476 41.7722H50.8289V39.4063C51.5111 40.1136 52.4687 40.5892 53.4826 40.5892C54.5654 40.5892 55.642 40.2951 55.642 39.1059C55.642 36.3457 51.1794 37.6663 51.1794 34.2114C51.1794 32.6153 52.4499 31.6264 54.1085 31.6264C54.6906 31.6264 55.3541 31.8267 55.7046 31.8267C55.8485 31.8267 56.0613 31.7829 56.1615 31.6702V33.6606Z" fill="#FEFEFE"/>
</svg>
