<svg xmlns="http://www.w3.org/2000/svg" viewBox="0 0 259.54 34.03">
    <defs>
        <style>.cls-1{fill:#3f3f3f;}</style>
    </defs>
    <title>Prime Production</title>
    <path class="cls-1"
          d="M40,19.66V3.17h8.48a5.87,5.87,0,0,1,2,.32A4.09,4.09,0,0,1,53,5.9a5.34,5.34,0,0,1,.34,2,5.38,5.38,0,0,1-.34,2,4.39,4.39,0,0,1-1,1.5,4.15,4.15,0,0,1-1.53,1,5.67,5.67,0,0,1-2,.33H45.56a9.52,9.52,0,0,0-1.6.14,5,5,0,0,0-1.55.53v6.34Zm8.47-9.44c1.62,0,2.43-.78,2.43-2.33a2.19,2.19,0,0,0-.62-1.77,2.73,2.73,0,0,0-1.81-.52H42.41v5.29A4.23,4.23,0,0,1,44,10.33a12.05,12.05,0,0,1,1.6-.11Z"/>
    <path class="cls-1"
          d="M65.47,16.21a2,2,0,0,0,.44.56,1.89,1.89,0,0,0,.51.29,2.12,2.12,0,0,0,.52.14l.46,0h.79v2.43h-1a8.51,8.51,0,0,1-.88,0,3,3,0,0,1-.85-.22,3.05,3.05,0,0,1-.82-.54,4.93,4.93,0,0,1-.79-1L62.09,15h-.16q-.66,0-1.11,0a4.23,4.23,0,0,0-.8.12,5.34,5.34,0,0,0-.64.21c-.2.08-.42.18-.65.3v4H56.41V8.21h7.38a4,4,0,0,1,1.45.25,3.42,3.42,0,0,1,1.14.73,3.32,3.32,0,0,1,.75,1.09,3.52,3.52,0,0,1,.27,1.39,3.25,3.25,0,0,1-.69,2.15A4,4,0,0,1,64.76,15ZM63.79,12.7a1.48,1.48,0,0,0,.9-.28,1,1,0,0,0,.38-.83,1,1,0,0,0-.15-.59,1,1,0,0,0-.39-.34,1.64,1.64,0,0,0-.54-.14l-.6,0H58.73v2.87a4.67,4.67,0,0,1,1.47-.52,10.45,10.45,0,0,1,1.73-.14Z"/>
    <path class="cls-1" d="M72.61,19.66V8.21h2.26V19.66Z"/>
    <path class="cls-1" d="M93,10v9.62h-2.5V13l-4,5.4-4-5.4v6.7H79.87V10L78.74,8.21h2.78l4.89,6.48L91.3,8.21h2.78Z"/>
    <path class="cls-1"
          d="M100.43,17.36h7.18v2.3H98.17V8.21h9v2.28h-6.76v2.78a4.28,4.28,0,0,1,1.67-.55,16.78,16.78,0,0,1,1.91-.11h1.68v2.28H104q-.8,0-1.32,0a8.89,8.89,0,0,0-.89.1,2.92,2.92,0,0,0-.69.2l-.68.33Z"/>
    <path class="cls-1"
          d="M117.7,19.66V3.17h8.48a6,6,0,0,1,2,.32,4.09,4.09,0,0,1,1.53.93,4,4,0,0,1,1,1.48,5.34,5.34,0,0,1,.35,2,5.37,5.37,0,0,1-.35,2,4.22,4.22,0,0,1-1,1.5,4.15,4.15,0,0,1-1.53,1,5.71,5.71,0,0,1-2,.33h-2.93a9.49,9.49,0,0,0-1.59.14,5,5,0,0,0-1.55.53v6.34Zm8.47-9.44c1.62,0,2.43-.78,2.43-2.33A2.19,2.19,0,0,0,128,6.12a2.73,2.73,0,0,0-1.81-.52h-6.06v5.29a4.16,4.16,0,0,1,1.54-.56,11.94,11.94,0,0,1,1.6-.11Z"/>
    <path class="cls-1"
          d="M143.17,16.21a2,2,0,0,0,.44.56,1.63,1.63,0,0,0,.51.29,2.12,2.12,0,0,0,.52.14l.45,0h.8v2.43h-1a8.44,8.44,0,0,1-.87,0,2.88,2.88,0,0,1-.85-.22,3.05,3.05,0,0,1-.82-.54,4.94,4.94,0,0,1-.8-1L139.79,15h-.16c-.44,0-.81,0-1.12,0a4.25,4.25,0,0,0-.79.12,5.34,5.34,0,0,0-.64.21q-.3.12-.66.3v4H134.1V8.21h7.39a4,4,0,0,1,1.45.25,3.28,3.28,0,0,1,1.13.73,3.2,3.2,0,0,1,.76,1.09,3.7,3.7,0,0,1,.26,1.39,3.3,3.3,0,0,1-.68,2.15A4,4,0,0,1,142.46,15Zm-1.68-3.51a1.43,1.43,0,0,0,.89-.28.94.94,0,0,0,.39-.83,1,1,0,0,0-.15-.59,1.14,1.14,0,0,0-.39-.34,1.78,1.78,0,0,0-.54-.14l-.6,0h-4.67v2.87a4.82,4.82,0,0,1,1.48-.52,10.36,10.36,0,0,1,1.73-.14Z"/>
    <path class="cls-1"
          d="M162.76,13.83a5.69,5.69,0,0,1-.58,2.61,6.15,6.15,0,0,1-1.51,1.94,6.64,6.64,0,0,1-2.18,1.22A7.72,7.72,0,0,1,156,20a8,8,0,0,1-2.53-.41,6.38,6.38,0,0,1-2.15-1.2,5.83,5.83,0,0,1-1.51-1.92,5.72,5.72,0,0,1-.57-2.6,5.63,5.63,0,0,1,.58-2.58,5.72,5.72,0,0,1,1.53-1.91,6.88,6.88,0,0,1,2.17-1.17,8.12,8.12,0,0,1,2.5-.4,8.48,8.48,0,0,1,2.51.38,6.46,6.46,0,0,1,2.18,1.13,5.6,5.6,0,0,1,2.09,4.49Zm-2.41,0a3.35,3.35,0,0,0-1.37-2.8,4.2,4.2,0,0,0-1.4-.66,6.11,6.11,0,0,0-1.6-.21,5.81,5.81,0,0,0-1.62.22,4.1,4.1,0,0,0-1.39.68,3.45,3.45,0,0,0-1.35,2.86,3.56,3.56,0,0,0,.37,1.68,3.51,3.51,0,0,0,1,1.17,4.05,4.05,0,0,0,1.4.68,5.87,5.87,0,0,0,1.62.23,5,5,0,0,0,1.59-.26A4.52,4.52,0,0,0,159,16.7a3.73,3.73,0,0,0,1-1.2A3.52,3.52,0,0,0,160.35,13.85Z"/>
    <path class="cls-1"
          d="M165.5,8.21h7.1a7.33,7.33,0,0,1,2.35.36,5.05,5.05,0,0,1,1.84,1.09A4.87,4.87,0,0,1,178,11.43a6.46,6.46,0,0,1,.42,2.42,6.85,6.85,0,0,1-.41,2.41,5,5,0,0,1-1.17,1.83A5.2,5.2,0,0,1,175,19.25a6.41,6.41,0,0,1-2.37.41h-4.67V10.49h-1.41Zm4.84,2.28v6.87h2.27a3.49,3.49,0,0,0,2.56-.9,3.5,3.5,0,0,0,.9-2.57,3.35,3.35,0,0,0-.9-2.54,3.56,3.56,0,0,0-2.56-.86Z"/>
    <path class="cls-1"
          d="M187.46,20a8,8,0,0,1-2.2-.29,5,5,0,0,1-1.75-.87,4,4,0,0,1-1.15-1.51,5.37,5.37,0,0,1-.41-2.18v-7h2.28v7a2.89,2.89,0,0,0,.23,1.22,2.12,2.12,0,0,0,.66.79,3.09,3.09,0,0,0,1,.42,6.78,6.78,0,0,0,1.33.12,6.85,6.85,0,0,0,1.33-.12,3,3,0,0,0,1-.42,2.06,2.06,0,0,0,.67-.79,2.89,2.89,0,0,0,.23-1.22v-7H193v7a5.37,5.37,0,0,1-.41,2.18,4.05,4.05,0,0,1-1.15,1.51,5,5,0,0,1-1.75.87,8,8,0,0,1-2.2.29Z"/>
    <path class="cls-1"
          d="M208,18.38a6.4,6.4,0,0,1-2.17,1.23,8,8,0,0,1-5.06,0,6.53,6.53,0,0,1-2.16-1.2,5.8,5.8,0,0,1-1.5-1.92,5.71,5.71,0,0,1-.56-2.6,5.63,5.63,0,0,1,.57-2.58,5.72,5.72,0,0,1,1.53-1.91,6.83,6.83,0,0,1,2.16-1.17,8.17,8.17,0,0,1,2.5-.4,8.52,8.52,0,0,1,2.46.37,6.93,6.93,0,0,1,2.14,1.07L206.41,11a5.06,5.06,0,0,0-1.45-.67,5.69,5.69,0,0,0-1.63-.24,5.36,5.36,0,0,0-1.61.24,4.36,4.36,0,0,0-1.4.69,3.41,3.41,0,0,0-1,1.18,3.77,3.77,0,0,0-.36,1.7,3.56,3.56,0,0,0,.37,1.68,3.43,3.43,0,0,0,1,1.17,4.49,4.49,0,0,0,1.4.7,5.78,5.78,0,0,0,1.6.23,5.35,5.35,0,0,0,1.81-.32,4.73,4.73,0,0,0,1.53-.92Z"/>
    <path class="cls-1" d="M216.89,10.49v9.17h-2.28V10.49h-4.16V8.21H221.2v2.28Z"/>
    <path class="cls-1" d="M224.74,19.66V8.21H227V19.66Z"/>
    <path class="cls-1"
          d="M244.74,13.83a5.82,5.82,0,0,1-.57,2.61,6.18,6.18,0,0,1-1.52,1.94,6.7,6.7,0,0,1-2.17,1.22A7.76,7.76,0,0,1,238,20a7.94,7.94,0,0,1-2.53-.41,6.53,6.53,0,0,1-2.16-1.2,5.66,5.66,0,0,1-2.07-4.52,5.51,5.51,0,0,1,.58-2.58,5.82,5.82,0,0,1,1.52-1.91,7,7,0,0,1,2.17-1.17,8.24,8.24,0,0,1,2.51-.4,8.58,8.58,0,0,1,2.51.38,6.5,6.5,0,0,1,2.17,1.13,5.63,5.63,0,0,1,1.52,1.88A5.7,5.7,0,0,1,244.74,13.83Zm-2.41,0a3.31,3.31,0,0,0-1.36-2.8,4.3,4.3,0,0,0-1.4-.66,6.22,6.22,0,0,0-1.6-.21,5.81,5.81,0,0,0-1.62.22,4,4,0,0,0-1.39.68,3.43,3.43,0,0,0-1,1.18,3.53,3.53,0,0,0-.38,1.68,3.56,3.56,0,0,0,.38,1.68,3.51,3.51,0,0,0,1,1.17,4.05,4.05,0,0,0,1.4.68,5.82,5.82,0,0,0,1.62.23,5.09,5.09,0,0,0,1.59-.26A4.76,4.76,0,0,0,241,16.7a3.73,3.73,0,0,0,1-1.2A3.52,3.52,0,0,0,242.33,13.85Z"/>
    <path class="cls-1" d="M250.34,8.21l6.92,8v-8h2.28V19.66h-2.28l-6.37-7.45v7.45h-2.28V9.91l-1.12-1.7Z"/>
    <path class="cls-1" d="M73.4,33.14v-4.4h.51l1.6,2.4,1.6-2.4h.5v4.4h-.5V29.58l-1.6,2.35h0l-1.6-2.35v3.56Z"/>
    <path class="cls-1" d="M80.73,33.14l2-4.43h.46l2,4.43h-.53L84.15,32H81.76l-.52,1.17ZM82,31.53h2l-1-2.24Z"/>
    <path class="cls-1"
          d="M88.33,33.14v-4.4H90a1.82,1.82,0,0,1,1.2.38,1.39,1.39,0,0,1,0,2.09,2,2,0,0,1-1.23.38H88.82v1.55Zm.49-2h1.09a1.39,1.39,0,0,0,.87-.26.88.88,0,0,0,.33-.72.83.83,0,0,0-.31-.7,1.35,1.35,0,0,0-.87-.25H88.82Z"/>
    <path class="cls-1" d="M94.78,33.14v-4.4h.5v2.63l2.52-2.63h.64l-1.88,1.92,2,2.48H97.9L96.21,31l-.93.95v1.18Z"/>
    <path class="cls-1" d="M101.55,33.14v-4.4h3.18v.45h-2.68v1.5h2.39v.46h-2.39v1.53h2.71v.46Z"/>
    <path class="cls-1" d="M109.18,33.14V29.19H107.7v-.45h3.45v.45h-1.47v3.95Z"/>
    <path class="cls-1" d="M114.34,33.14v-4.4h.5v3.65l2.62-3.65h.47v4.4h-.49V29.49l-2.62,3.65Z"/>
    <path class="cls-1" d="M121.43,33.14v-4.4h.5v2h2.53v-2h.5v4.4h-.5v-2h-2.53v2Z"/>
    <path class="cls-1" d="M128.46,33.14v-4.4h2.81v.45H129v3.95Z"/>
    <path class="cls-1"
          d="M138.07,32.54a2.28,2.28,0,0,1-3.22,0,2.27,2.27,0,0,1-.63-1.61,2.21,2.21,0,0,1,.64-1.6,2.11,2.11,0,0,1,1.61-.67,2.13,2.13,0,0,1,1.61.66,2.3,2.3,0,0,1,.62,1.61A2.24,2.24,0,0,1,138.07,32.54Zm-2.84-.31a1.62,1.62,0,0,0,1.24.52,1.59,1.59,0,0,0,1.23-.52,1.94,1.94,0,0,0,0-2.58,1.74,1.74,0,0,0-2.48,0,1.84,1.84,0,0,0-.48,1.29A1.82,1.82,0,0,0,135.23,32.23Z"/>
    <path class="cls-1"
          d="M142,33.14v-4.4h1.87a1.52,1.52,0,0,1,1.15.39,1,1,0,0,1,.28.72,1,1,0,0,1-.69,1c.62.19.94.55.94,1.08a1,1,0,0,1-.44.88,1.9,1.9,0,0,1-1.16.32Zm.49-2.44h1.3a1.15,1.15,0,0,0,.73-.21.67.67,0,0,0,.28-.59.61.61,0,0,0-.25-.52,1.16,1.16,0,0,0-.72-.19H142.5Zm0,2H144a1.34,1.34,0,0,0,.79-.21.7.7,0,0,0,.29-.59.63.63,0,0,0-.3-.56,1.7,1.7,0,0,0-.87-.19H142.5Z"/>
    <path class="cls-1"
          d="M152.45,32.54a2.27,2.27,0,0,1-3.21,0,2.27,2.27,0,0,1-.63-1.61,2.24,2.24,0,0,1,.63-1.6,2.28,2.28,0,0,1,3.22,0,2.27,2.27,0,0,1,.63,1.61A2.21,2.21,0,0,1,152.45,32.54Zm-2.83-.31a1.6,1.6,0,0,0,1.23.52,1.62,1.62,0,0,0,1.24-.52,1.84,1.84,0,0,0,.48-1.29,1.81,1.81,0,0,0-.49-1.29,1.62,1.62,0,0,0-1.24-.52,1.59,1.59,0,0,0-1.23.52,1.81,1.81,0,0,0-.49,1.29A1.83,1.83,0,0,0,149.62,32.23Z"/>
    <path class="cls-1" d="M156.4,33.14v-4.4h3.17v.45h-2.68v1.5h2.4v.46h-2.4v1.53h2.71v.46Z"/>
    <path class="cls-1" d="M166.63,33.14l2-4.43h.46l2,4.43h-.53L170.05,32h-2.39l-.53,1.17Zm1.22-1.61h2l-1-2.24Z"/>
    <path class="cls-1" d="M174.22,33.14v-4.4H177v.45h-2.31v3.95Z"/>
    <path class="cls-1" d="M180.18,33.14v-4.4h3.17v.45h-2.68v1.5h2.4v.46h-2.4v1.53h2.71v.46Z"/>
    <path class="cls-1" d="M186.64,33.14v-4.4h.5v2h2.53v-2h.5v4.4h-.5v-2h-2.53v2Z"/>
    <path class="cls-1" d="M194.83,33.14V29.19h-1.47v-.45h3.45v.45h-1.48v3.95Z"/>
    <path class="cls-1"
          d="M202,33.21a2.1,2.1,0,0,1-1.57-.65,2.39,2.39,0,0,1,0-3.23,2.14,2.14,0,0,1,1.59-.66,2.22,2.22,0,0,1,.94.18,2.62,2.62,0,0,1,.76.53l-.32.35a2,2,0,0,0-1.38-.6,1.6,1.6,0,0,0-1.22.52,2,2,0,0,0,0,2.58,1.56,1.56,0,0,0,1.21.52,1.79,1.79,0,0,0,.75-.15,2.75,2.75,0,0,0,.66-.48l.33.34A2.64,2.64,0,0,1,203,33,2.26,2.26,0,0,1,202,33.21Z"/>
    <path class="cls-1" d="M208.05,33.14V29.19h-1.48v-.45H210v.45h-1.47v3.95Z"/>
    <path class="cls-1"
          d="M213.21,33.14v-4.4h1.87a1.52,1.52,0,0,1,1.15.39,1,1,0,0,1,.28.72,1,1,0,0,1-.69,1c.62.19.94.55.94,1.08a1,1,0,0,1-.44.88,1.9,1.9,0,0,1-1.16.32Zm.49-2.44H215a1.2,1.2,0,0,0,.74-.21.68.68,0,0,0,.27-.59.61.61,0,0,0-.25-.52,1.16,1.16,0,0,0-.72-.19H213.7Zm0,2h1.48a1.34,1.34,0,0,0,.79-.21.7.7,0,0,0,.29-.59.63.63,0,0,0-.3-.56,1.7,1.7,0,0,0-.87-.19H213.7Z"/>
    <path class="cls-1"
          d="M223.66,32.54a2.13,2.13,0,0,1-1.62.67,2.1,2.1,0,0,1-1.6-.66,2.27,2.27,0,0,1-.63-1.61,2.24,2.24,0,0,1,.63-1.6,2.28,2.28,0,0,1,3.22,0,2.27,2.27,0,0,1,.63,1.61A2.24,2.24,0,0,1,223.66,32.54Zm-2.84-.31a1.73,1.73,0,0,0,2.47,0,1.85,1.85,0,0,0,.49-1.29,1.81,1.81,0,0,0-.5-1.29,1.62,1.62,0,0,0-1.24-.52,1.59,1.59,0,0,0-1.23.52,1.85,1.85,0,0,0-.49,1.29A1.83,1.83,0,0,0,220.82,32.23Z"/>
    <path class="cls-1"
          d="M23.68,1.64c1-4.29-6.46,1.07-7.53,2.05C.25,18.24,0,34,0,34H16.8c.39-5-3.51-7.79-5.19-9S8.25,22.34,8.71,22s2.21,0,2.21,0C22.3,24,32.75,34,32.75,34S21.4,11.25,23.68,1.64Z"/>
</svg>