<svg xmlns="http://www.w3.org/2000/svg" xml:space="preserve" width="603.603mm" height="155.575mm"
     style="shape-rendering:geometricPrecision; text-rendering:geometricPrecision; image-rendering:optimizeQuality; fill-rule:evenodd; clip-rule:evenodd"
     viewBox="0 0 60360 15558"> <defs> <style
        type="text/css"> <![CDATA[ .fil1 {fill:#2B2414;fill-rule:nonzero} .fil2 {fill:#F9F8F5;fill-rule:nonzero} .fil0 {fill:#ee383e;fill-rule:nonzero} ]]> </style> </defs>
    <path class="fil0"
          d="M37384 0c-795,5185 -1577,10372 -2372,15558l-6522 0c615,-3986 1222,-7973 1833,-11960 13,-103 83,-183 136,-267 301,-459 600,-918 900,-1378 -248,-4 -495,0 -743,-4 102,-650 213,-1298 308,-1949l6459 0zm-5555 5475c-391,164 -735,453 -932,832 -247,470 -262,1036 -122,1541 122,437 446,792 835,1012 549,328 1189,466 1733,802 285,174 525,443 605,773 79,326 76,701 -125,984 -186,261 -501,387 -805,447 -443,81 -907,80 -1340,-52 -478,-140 -905,-420 -1254,-771 3,588 3,1176 0,1764 88,-76 178,-168 300,-179 123,-2 242,36 361,65 505,133 1023,225 1547,225 526,17 1062,-118 1502,-412 520,-339 886,-910 955,-1529 53,-516 -24,-1069 -322,-1504 -326,-477 -865,-739 -1387,-945 -429,-180 -894,-309 -1257,-612 -375,-304 -440,-921 -137,-1295 247,-279 647,-339 1001,-344 510,-10 990,211 1396,504 -1,-485 -3,-971 1,-1456 -104,56 -218,104 -339,99 -252,-8 -496,-74 -745,-107 -492,-79 -1010,-35 -1471,158z"></path>
    <path class="fil1"
          d="M29544 2307c18,-37 27,-106 86,-92 363,-3 726,-8 1089,-8 -470,719 -946,1435 -1417,2154 -181,1 -362,2 -542,0 265,-683 524,-1368 784,-2053zm30816 3994l0 -1139c-230,196 -544,122 -817,175 -500,72 -985,334 -1261,766 -87,125 -143,267 -209,403 -29,-321 -5,-645 -12,-967 -373,-1 -745,0 -1118,-1 77,192 158,389 150,600 -3,1905 3,3810 -4,5715 -14,296 5,650 -244,861 511,-4 1023,-2 1534,-1 -171,-141 -249,-362 -245,-579 -4,-1106 0,-2211 -2,-3317 -1,-439 -21,-893 138,-1311 164,-473 542,-860 1006,-1044 341,-147 716,-170 1082,-162zm-33412 -4041c419,1 839,-3 1258,2 -4,2668 0,5337 -1,8005 4,283 -8,570 55,848 14,75 55,142 96,206 -321,69 -593,258 -863,434 -531,306 -1020,686 -1587,924 -703,297 -1504,295 -2236,108 -991,-253 -1861,-936 -2342,-1838 -381,-701 -534,-1519 -454,-2311 62,-626 291,-1235 659,-1745 405,-566 973,-1009 1612,-1283 707,-309 1499,-393 2262,-299 530,61 1064,259 1440,649 120,113 206,255 312,379l42 -23c10,-1189 2,-2378 4,-3568 8,-197 -104,-373 -255,-490zm-4394 4949c-499,597 -725,1400 -662,2171 87,1043 829,1978 1800,2350 707,280 1526,247 2211,-81 475,-215 865,-568 1302,-846 -5,-1121 2,-2242 -4,-3362 -289,-289 -580,-584 -936,-792 -544,-325 -1197,-386 -1818,-371 -726,25 -1434,369 -1894,932zm15183 -4917c421,-2 842,0 1263,-1 0,1331 1,2662 -1,3993 173,-112 310,-270 472,-397 297,-256 658,-440 1045,-513 623,-117 1284,-92 1879,140 1178,440 2058,1615 2083,2882 3,1035 0,2070 2,3105 6,305 -28,623 81,915 43,124 143,212 237,298 -545,-1 -1091,3 -1636,-2 77,-76 165,-147 207,-250 72,-168 66,-356 70,-535 1,-1059 0,-2119 1,-3178 6,-309 -30,-622 -134,-914 -181,-531 -567,-988 -1063,-1252 -502,-267 -1103,-350 -1657,-216 -425,103 -799,352 -1111,652 -163,150 -301,323 -471,465 -9,1540 0,3079 -5,4619 0,95 -1,196 46,282 67,139 200,225 312,326 -539,7 -1078,4 -1617,1 176,-152 222,-388 217,-611 1,-3010 0,-6020 1,-9030 3,-270 21,-596 -220,-779zm17101 833c372,-126 809,150 857,538 60,358 -233,715 -590,747 -356,48 -715,-240 -740,-598 -33,-304 183,-602 473,-687zm-51927 2176c606,-61 1237,-22 1804,217 516,214 948,606 1234,1084 349,-303 647,-670 1045,-913 355,-226 768,-344 1183,-388 367,-37 742,-41 1104,38 746,156 1416,612 1862,1227 394,537 617,1198 620,1865 1,1117 0,2234 0,3351 2,213 5,435 90,635 44,109 133,188 217,266 -530,2 -1059,-5 -1589,4 204,-137 283,-384 277,-620 8,-1141 1,-2282 4,-3423 4,-406 -82,-816 -271,-1178 -221,-429 -584,-785 -1023,-987 -586,-271 -1298,-282 -1875,18 -444,218 -774,595 -1096,959 -5,1430 -1,2861 -2,4291 2,220 2,448 85,656 43,113 134,196 219,279 -525,0 -1049,-2 -1574,1 80,-79 168,-158 208,-266 59,-157 59,-328 61,-494 0,-1105 0,-2211 0,-3316 3,-562 -183,-1129 -548,-1559 -593,-723 -1688,-993 -2538,-587 -473,218 -818,622 -1165,995 -30,86 -11,181 -16,270 1,1387 0,2774 0,4160 3,138 -13,279 23,414 55,168 203,277 335,383 -529,-16 -1057,28 -1586,8l0 -14c212,-141 225,-418 227,-648 0,-1576 0,-3151 0,-4727 7,-155 -50,-300 -127,-431 165,-89 330,-179 484,-287 411,-280 755,-648 1178,-911 345,-216 745,-331 1148,-374zm12912 15c900,-134 1844,68 2612,556 921,574 1584,1552 1748,2628 137,846 -24,1737 -454,2479 -513,896 -1401,1568 -2402,1819 -896,231 -1875,123 -2698,-300 -879,-442 -1579,-1231 -1900,-2162 -331,-948 -264,-2028 189,-2926 551,-1116 1673,-1923 2905,-2094zm141 988c-1060,150 -1988,957 -2292,1982 -184,599 -156,1259 78,1840 261,660 780,1212 1421,1517 501,241 1075,329 1625,243 531,-80 1034,-319 1437,-673 477,-417 813,-997 925,-1621 92,-504 41,-1034 -147,-1511 -253,-651 -756,-1198 -1381,-1511 -509,-258 -1099,-353 -1664,-267zm31662 -656c682,-303 1443,-388 2182,-326 549,45 1078,230 1554,503 434,239 825,546 1257,788 186,110 407,125 619,126 -248,175 -260,501 -262,776 -2,1586 -2,3173 0,4760 -8,196 140,342 292,442 -444,-9 -888,-5 -1332,-2 -14,-273 9,-548 -12,-820 -72,-31 -93,60 -133,99 -318,443 -816,735 -1345,849 -1227,261 -2577,36 -3597,-712 -553,-401 -1003,-951 -1261,-1585 -489,-1196 -285,-2636 486,-3669 397,-537 940,-963 1552,-1229zm255 1027c-611,336 -1107,890 -1339,1551 -379,1087 -7,2392 891,3115 477,391 1092,598 1706,606 476,4 962,-31 1415,-190 491,-167 895,-509 1262,-864 44,-50 122,-90 115,-167 1,-1104 1,-2208 0,-3312 -266,-151 -504,-344 -760,-510 -400,-266 -845,-476 -1322,-556 -668,-118 -1374,-3 -1967,327zm6407 -1137c422,1 845,-2 1268,2 -4,2187 0,4373 -2,6560 -7,228 63,467 247,614 -510,-2 -1020,-1 -1529,-1 234,-205 225,-540 238,-824 4,-1906 0,-3812 2,-5717 7,-228 -26,-487 -223,-633zm-16542 7911c282,7 564,-3 846,5 211,7 423,116 528,303 152,256 123,638 -131,820 -242,176 -555,140 -836,151 5,261 1,521 3,782 -137,1 -274,1 -412,2 -4,-688 -7,-1375 2,-2063zm414 350c-9,190 -2,380 -5,570 161,-1 330,22 485,-35 204,-78 198,-430 -11,-498 -151,-53 -314,-28 -470,-37zm5044 -344c187,-8 374,-3 561,-4 193,687 399,1371 583,2061 -139,-2 -279,-2 -418,-1 -45,-171 -91,-341 -132,-513 -203,-7 -407,-3 -610,-2 -43,172 -90,343 -133,514 -142,1 -284,2 -425,-1 193,-684 387,-1368 574,-2053zm283 363c-74,283 -144,567 -214,851 146,-1 293,-1 439,0 -76,-283 -128,-574 -225,-851zm4370 -362c252,-12 505,-2 757,-6 180,-5 372,28 512,149 202,167 268,477 144,710 -58,121 -167,206 -283,266 134,312 275,622 405,936 -146,-2 -293,1 -439,-4 -119,-285 -244,-568 -368,-851 -103,1 -206,1 -308,-2 -7,283 -6,567 0,849 -141,10 -282,10 -422,1 6,-683 6,-1366 0,-2049zm417 346c2,168 -3,336 5,504 164,-9 334,17 493,-37 193,-64 179,-391 -17,-440 -156,-44 -320,-23 -480,-28zm4720 -352c137,1 274,1 412,0 2,687 2,1374 0,2062 -138,-2 -275,-2 -412,0 -2,-687 -2,-1374 0,-2062zm4211 254c219,-327 740,-383 1023,-110 112,103 164,251 188,397 -125,23 -251,46 -377,65 -37,-101 -80,-217 -185,-264 -149,-73 -354,41 -351,212 -7,106 84,182 174,217 226,95 500,120 671,315 214,261 137,691 -138,879 -216,151 -505,157 -749,79 -230,-74 -415,-303 -416,-544 131,-32 267,-44 402,-61 26,88 54,184 132,242 109,80 270,76 383,5 131,-85 139,-309 -1,-389 -222,-134 -507,-138 -708,-313 -206,-181 -198,-518 -49,-732z"></path>
    <path class="fil2"
          d="M31829 5475c462,-194 979,-238 1471,-158 249,32 493,99 745,107 121,6 235,-43 339,-99 -4,485 -2,971 -1,1456 -406,-293 -886,-514 -1396,-504 -354,5 -754,65 -1001,344 -303,375 -238,991 137,1295 363,303 828,433 1257,612 522,206 1061,468 1387,945 298,435 376,988 322,1504 -69,619 -435,1190 -955,1529 -440,294 -975,428 -1502,412 -524,-1 -1042,-93 -1547,-225 -119,-29 -238,-67 -361,-65 -122,11 -212,103 -300,179 3,-588 3,-1176 0,-1764 349,351 777,631 1254,771 433,132 897,133 1340,52 304,-60 619,-186 805,-447 201,-283 204,-659 125,-984 -81,-330 -320,-600 -605,-773 -545,-336 -1184,-473 -1733,-802 -389,-220 -713,-575 -835,-1012 -140,-505 -124,-1071 122,-1541 197,-379 541,-668 932,-832z"></path>

</svg>