<svg xmlns="http://www.w3.org/2000/svg" viewBox="0 0 389.97 389.81">
    <path d="M289.29,216.49c9.8-9.05,19.46-17.74,28.85-26.72,6.22-6,12-12.39,18.06-18.52,15.61-15.8,42.58-10.08,49.47,10.93,3.45,10.52,2.06,20.9-5.54,29.88-14.05,16.6-27.92,33.33-41.87,50-7.06,8.43-14.19,16.8-21.15,25.31-13.56,16.6-31.28,24.38-52.42,24.49-32.12.16-64.24.34-96.35-.12-11.29-.16-18.31,6-25.13,13.33-.5.53-.44,1.83-.27,2.7,1.64,8.64-.56,16-6.89,22.22-11.43,11.19-22.78,22.45-34.19,33.66-4.63,4.53-8.34,4.51-12.91-.09Q48,342.35,7.08,301.09c-4.58-4.62-4.56-8.32,0-12.91q16.91-17,33.88-34A23.22,23.22,0,0,1,59.56,247a4.05,4.05,0,0,0,3.13-1.66c24.18-43.13,78.76-55,118.69-39.4a16.53,16.53,0,0,0,5.82.95c25.24.06,50.48.24,75.72,0C273.78,206.73,283.15,209.35,289.29,216.49ZM133.71,313.1a30.46,30.46,0,0,0,2.52-2.29c9.27-10.19,20.73-14.21,34.5-14,31.61.43,63.24.29,94.86.07,15.93-.11,29.37-6.11,39.65-18.63,7-8.5,14.09-16.88,21.15-25.32q21.17-25.31,42.32-50.62c5.67-6.83,5.14-15.6-1.06-21.22a14.75,14.75,0,0,0-20.66.62q-24.3,24.75-48.34,49.75a5.22,5.22,0,0,0-1.39,3.55c1.21,16.58-12.14,32.3-31.52,32-15-.23-30,0-45-.05-4.87,0-9.75.08-14.62-.06a7.18,7.18,0,0,1-7-5.24c-1-3.16-.26-6.19,2.51-8a12.37,12.37,0,0,1,6.31-1.66c19.24-.12,38.5.08,57.74-.21a21.84,21.84,0,0,0,10.51-3c5.48-3.31,7.41-10.5,5.39-16.57A14.86,14.86,0,0,0,267,222c-27.37,0-54.75,0-82.12-.06a28.45,28.45,0,0,1-6.58-1c-7.85-1.94-15.56-5-23.51-5.81-23.13-2.38-44.46,2.74-62.67,18A67.71,67.71,0,0,0,75,254.37C94.74,274.11,114.15,293.52,133.71,313.1ZM21.5,294.86l75.6,74c9.4-9.77,19.3-20,29.12-30.3,3.41-3.59,3.11-7.74-.67-11.54q-19.17-19.25-38.38-38.46-12.06-12-24.22-24c-3.35-3.28-7.21-3.66-10.34-.61C42.33,273.93,32.25,284.14,21.5,294.86Z"/>
    <path d="M210.71,3h87.72c15.48,0,24.73,9.23,24.74,24.69q0,54.74,0,109.46c0,15.53-9.23,24.81-24.65,24.81H122.71c-15.21,0-24.49-9.3-24.49-24.53q0-54.91,0-109.84C98.22,12.11,107.43,3,123,3ZM113.2,78.12c0,20,0,39.62,0,59.23,0,7.1,2.55,9.6,9.79,9.6H298.41c7.17,0,9.76-2.57,9.76-9.68q0-27.74,0-55.47c0-1.2-.11-2.4-.17-3.68ZM308.09,48.2H113.48V62.67H308.09ZM113.51,32.68H308.18c0-1.16,0-2,0-2.89.07-10-1.76-11.82-11.73-11.82-56.6,0-113.21.16-169.81-.12-13.47-.07-14,4-13.34,14.3A2.61,2.61,0,0,0,113.51,32.68Z"/>
    <path d="M175,250.61a7.47,7.47,0,0,1,7.32,7.49,7.3,7.3,0,0,1-7.67,7.42,7.52,7.52,0,0,1-7.23-7.59A7.69,7.69,0,0,1,175,250.61Z"/>
    <path d="M270.76,117c4.75,0,9.5-.07,14.25,0s8.14,3.24,8.12,7.49-3.36,7.42-8.16,7.46q-14.43.11-28.87,0c-4.6,0-7.79-3.14-7.88-7.3-.09-4.39,3.08-7.54,7.92-7.63S265.89,117,270.76,117Z"/>
    <path d="M225.8,117a7.47,7.47,0,1,1-7.58,7.22A7.46,7.46,0,0,1,225.8,117Z"/>
</svg>