<svg xmlns="http://www.w3.org/2000/svg" viewBox="0 0 389.91 389.82">
    <path d="M312.62,188.73h4.47q24.75,0,49.5,0c12.77,0,20.31,7.53,20.31,20.22q0,60.18,0,120.36c0,12.75-7.45,20.29-20.23,20.35-16.37.07-32.75,0-49.12,0H312.8v36.85H3.17V2.87h4q124.31,0,248.59-.05A7.9,7.9,0,0,1,262,5.34c16,16.16,32.17,32.17,48.13,48.37a9.14,9.14,0,0,1,2.39,5.79q.19,62.25.1,124.49ZM300,349.69h-5q-61.29,0-122.6,0c-13.48,0-20.86-7.45-20.86-20.91,0-39.62.21-79.24-.13-118.85-.1-12,7.87-21.47,21.42-21.34,40.86.42,81.73.15,122.6.15h4.46V65.12h-12v49H151.7V27.6h98.69V15.54H15.55V374.2H300Zm-31.17-12.35h96.73c7.25,0,9-1.76,9-9.12V210.11c0-7.32-1.79-9.11-9-9.11H173.13c-7.4,0-9.12,1.69-9.12,9q0,59.25,0,118.49c0,7.12,1.75,8.89,8.78,8.89ZM164.27,40.17v61.46H275.1V64.77H250.53V40.17Zm125.52,12L263.36,25.74V52.21Z"/>
    <path d="M163.76,176.07H27.23c.5-8.83,0-17.69,1.73-26.09,2.29-11.17,10-18.42,21-21.84,6.06-1.89,12.23-3.47,18.32-5.32,1-.31,2.45-1.15,2.62-2a3.92,3.92,0,0,0-1.44-3c-12.09-9.72-17.37-22.37-17.1-37.75.16-9.13-.07-18.22,3.88-26.8a43.58,43.58,0,0,1,48.13-24.79c19.52,3.79,34.06,21,34.73,41.51a120.78,120.78,0,0,1-.74,20.93c-1.55,10.8-7.26,19.5-15.66,26.47a5.46,5.46,0,0,0-1.9,3.56c0,.63,1.84,1.58,3,1.94,5.72,1.77,11.51,3.3,17.23,5.07,13.28,4.11,21.09,13.12,22.59,26.89C164.37,161.73,163.76,168.76,163.76,176.07ZM64.51,77.16l.48,0c0,2.63-.12,5.26,0,7.87C65.85,101,78,113,94.23,114.29a30.4,30.4,0,0,0,31.69-24.63c1.12-6.32.83-12.94.74-19.42-.22-15.14-11.89-28.18-26.45-29.87C84,38.48,69.55,48.05,65.94,63.43,64.89,67.87,65,72.57,64.51,77.16Zm86.73,86.64c1.35-14.21-3.17-20.9-16.41-24.78-4-1.16-8.07-1.89-11.82-3.5-5-2.15-8.39-1-11.9,3.08-4.68,5.45-10.06,10.29-15.27,15.53-6.38-6.4-12.3-12.48-18.43-18.34A5.58,5.58,0,0,0,73,134.53C66.43,136.14,60,138,53.53,140c-10.22,3.18-15.6,13.2-12.79,23.79Zm-45.77-37.59h-19L96,136.07Z"/>
    <path d="M126.73,362H27.89V275.31h4.45c24.73,0,49.46,0,74.2.05a7,7,0,0,0,6-2.8c7.15-8.66,14.47-17.18,21.89-25.93l9.42,8c-5.12,6.08-10.19,11.91-15,18a9.73,9.73,0,0,0-2.06,5.59c-.13,26.36-.09,52.72-.09,79.08ZM40.32,349.41h73.84V289.79L72.08,339.47c-7.94-7.77-15.65-15.34-23.23-22.77L57.33,308l13,14.4,29.05-34.35h-59Z"/>
    <path d="M287.69,139.52v11.69H176.57V139.52Z"/>
    <path d="M287.71,164.17V176H176.49V164.17Z"/>
    <path d="M139.05,189v11.64H27.94V189Z"/>
    <path d="M139.05,213.81v11.64H27.94V213.81Z"/>
    <path d="M101.84,238.56v11.69H27.92V238.56Z"/>
    <path d="M232,275.3q-20.81,0-41.62,0c-9.26,0-14-4.81-14.06-14.12q0-16.86,0-33.74c0-9,4.89-13.9,13.9-13.9q42,0,84,0c8.75,0,13.65,4.92,13.67,13.73q.06,17.25,0,34.5c0,8.55-5,13.5-13.5,13.52C260.21,275.33,246.09,275.3,232,275.3Zm-43-12.46h86.2V226.05h-86.2Z"/>
    <path d="M337.17,325.49c-4.13-1.24-8.23-3.36-12.39-3.48s-8.11,2.49-12.22,2.69a23.64,23.64,0,0,1-22.85-15.17c-3.81-9.89-2-19,5.25-26.68a24,24,0,0,1,26.9-5.5,7.14,7.14,0,0,0,6.25,0A24,24,0,0,1,355,282.86c7.25,7.72,9.11,16.76,5.21,26.68C356.53,318.91,347.41,324.87,337.17,325.49Zm.08-37.67A12.54,12.54,0,0,0,325,300.38a12.7,12.7,0,0,0,12.73,12.17,12.39,12.39,0,0,0,12-12.43A12.24,12.24,0,0,0,337.25,287.82Zm-21.68.59c-5.91-1.27-10.66.67-13.51,5.27a12.33,12.33,0,0,0,1,14.32c3.2,3.86,8,5.32,12.45,3.64C311.57,303.94,311.77,296.14,315.57,288.41Z"/>
    <path d="M275.12,324.69h-98.6V312.84h98.6Z"/>
    <path d="M362,213.78v11.71h-61.6V213.78Z"/>
    <path d="M300.32,250.27V238.54h61.6v11.73Z"/>
    <path d="M176.49,299.84V288.05h24.35v11.79Z"/>
    <path d="M213.76,299.88V288H238v11.88Z"/>
    <path d="M250.79,299.82V288.14h24.34v11.68Z"/>

</svg>