<svg xmlns="http://www.w3.org/2000/svg" viewBox="0 0 389.95 389.9">
    <path d="M119.2,191.71V26.82c0-8.2,2.24-10.41,10.49-10.41H316.41c8.41,0,10.54,2.17,10.54,10.72V169.49c2.84-2.64,5.56-5,8.13-7.58,9-8.89,19.64-11.74,31.64-7.74,19.77,6.58,26.68,30.82,13.37,47.21-14.49,17.85-29.36,35.39-44.07,53.06q-9.94,12-19.91,23.91c-13.12,15.82-30.21,23.53-50.49,23.72q-48.75.45-97.49,0c-14.44-.14-24.45,7.28-33.43,17.19A4.31,4.31,0,0,0,134,322a35.21,35.21,0,0,1-10.53,26.39q-10.93,11.06-22,22c-4.08,4-8,4-12.09-.07Q47.68,328.73,6.05,287.12c-4.25-4.25-4.22-8.11,0-12.36,7.32-7.35,14.7-14.64,22.05-21.95,6.59-6.55,14.57-9.84,23.78-10.55a5.58,5.58,0,0,0,4-2.31c13.15-25.08,33.54-40.74,61-47.41C117.56,192.36,118.24,192.05,119.2,191.71Zm15.21-2c2.19,0,4.16,0,6.13,0a102.13,102.13,0,0,1,35.25,6,23.53,23.53,0,0,0,7.6,1.39q41.24.15,82.48.05a30.53,30.53,0,0,1,22.85,9.45,16.84,16.84,0,0,0,1.68,1.32l-.91-1.2c6.64-6.07,13.25-12.18,19.95-18.18a7.55,7.55,0,0,0,2.57-6.23q-.11-73.47-.05-146.95V31.63H134.41Zm-5.68,114.17a12.06,12.06,0,0,0,1.17-1c11-11.3,24.51-15.95,40.21-15.81,32,.28,64,.21,96,0,14-.08,26.7-4.75,35.82-15.35,22.55-26.24,44.45-53.05,66.51-79.71a14.73,14.73,0,0,0-1.59-20.88c-6.12-5.37-15-4.89-20.92,1.19q-23.61,24.38-47.1,48.84a7.16,7.16,0,0,0-1.8,4.51c.05,18.34-12.87,31.43-31.31,31.46q-30.93,0-61.85,0c-6.12,0-9.61-2.75-9.6-7.5s3.5-7.47,9.63-7.49h2.25q30.18,0,60.35,0c7,0,12.58-4,14.67-10.16,3.38-10-3.92-19.79-14.95-19.81-26.87-.06-53.73-.1-80.6,0a52.83,52.83,0,0,1-16.83-2.82,88.19,88.19,0,0,0-19.68-4.25c-22.9-1.9-43.92,3.3-61.82,18.42A67.84,67.84,0,0,0,70,245.61C90.39,264.66,109.26,284.41,128.73,303.85ZM95.47,354.62c6.26-6.14,12.78-12,18.67-18.42a19,19,0,0,0-.47-26.23q-23.43-24-47.42-47.4a18.87,18.87,0,0,0-25.93-.45c-6.51,6-12.36,12.67-18.24,18.78Z"/>
    <path d="M178.46,78.46c-2.61-2.08-5.12-3.3-6.44-5.3-2.9-4.38.24-10.47,5.61-10.85a153.54,153.54,0,0,1,16.48,0,7.4,7.4,0,0,1,2.16,14.24,20.28,20.28,0,0,1-2.21.76c0,6.9-.86,13.85.17,20.51,2.32,15.11,16.38,25.49,31.64,24.3A30.08,30.08,0,0,0,253.41,93c.13-5.11,0-10.23,0-15.48-1-.36-1.89-.63-2.77-1a7.4,7.4,0,0,1,2.49-14.29c4.87-.17,9.74-.11,14.61,0,4.39.06,7.46,2.52,8.09,6.31s-1.56,7-5.76,8.47c-.47.17-.95.27-2.24.63,0,7,.85,14.4-.15,21.48-3.26,23.22-24.23,39.65-47.61,38-23.14-1.64-41.4-21.21-41.63-44.65C178.42,87.43,178.46,82.44,178.46,78.46Z"/>
    <path d="M177.81,248.34a7.25,7.25,0,0,1-7.28,7.43,7.47,7.47,0,0,1-7.61-7.56,7.67,7.67,0,0,1,7.56-7.34A7.45,7.45,0,0,1,177.81,248.34Z"/>
</svg>